<?xml version="1.0" encoding="UTF-8" standalone="no"?>
<svg
   xmlns:dc="http://purl.org/dc/elements/1.1/"
   xmlns:cc="http://creativecommons.org/ns#"
   xmlns:rdf="http://www.w3.org/1999/02/22-rdf-syntax-ns#"
   xmlns:svg="http://www.w3.org/2000/svg"
   xmlns="http://www.w3.org/2000/svg"
   width="793.70081"
   height="1122.5197"
   viewBox="0 0 210 297"
   version="1.1"
   id="svg8">
  <defs
     id="defs2" />
  <metadata
     id="metadata5">
    <rdf:RDF>
      <cc:Work
         rdf:about="">
        <dc:format>image/svg+xml</dc:format>
        <dc:type
           rdf:resource="http://purl.org/dc/dcmitype/StillImage" />
        <dc:title></dc:title>
      </cc:Work>
    </rdf:RDF>
  </metadata>
  <g
     id="layer1"
     style="display:inline" />
  <g
     id="layer2"
     style="display:inline">
    <path
       id="path1195"
       style="display:inline;opacity:1;fill:#0f3365;fill-opacity:1;stroke:none;stroke-width:2.50176;stroke-linecap:square;stroke-linejoin:miter;stroke-miterlimit:2.1;stroke-dasharray:none;stroke-dashoffset:0;stroke-opacity:1;paint-order:fill markers stroke"
       d="M 109.58805,91.47797 91.932427,81.313608 168.77106,37.040259 l -0.0831,21.228289 z" />
    <path
       id="rect1142"
       style="display:inline;opacity:1;fill:#0f3365;fill-opacity:1;stroke:none;stroke-width:2.50176;stroke-linecap:square;stroke-linejoin:miter;stroke-miterlimit:2.1;stroke-dasharray:none;stroke-dashoffset:0;stroke-opacity:1;paint-order:fill markers stroke"
       d="m 68.88787,68.046809 -17.65562,-10.16436 76.83863,-44.273344 -0.0831,21.228289 z" />
    <path
       id="path1193"
       style="display:inline;opacity:1;fill:#c4c4c4;fill-opacity:1;stroke:none;stroke-width:2.85818;stroke-linecap:square;stroke-linejoin:miter;stroke-miterlimit:2.1;stroke-dasharray:none;stroke-dashoffset:0;stroke-opacity:1;paint-order:fill markers stroke"
       d="M 77.327484,215.33462 100.37203,202.06783 23.533403,157.7945 0.48884201,171.06129 Z" />
    <path
       id="path1191"
       style="display:inline;opacity:1;fill:#c4c4c4;fill-opacity:1;stroke:none;stroke-width:2.85818;stroke-linecap:square;stroke-linejoin:miter;stroke-miterlimit:2.1;stroke-dasharray:none;stroke-dashoffset:0;stroke-opacity:1;paint-order:fill markers stroke"
       d="M 77.327484,159.9448 100.37203,146.67802 23.533403,102.40468 0.48884201,115.67147 Z" />
    <path
       id="path1189"
       style="display:inline;opacity:1;fill:#0f3365;fill-opacity:1;stroke:none;stroke-width:2.85818;stroke-linecap:square;stroke-linejoin:miter;stroke-miterlimit:2.1;stroke-dasharray:none;stroke-dashoffset:0;stroke-opacity:1;paint-order:fill markers stroke"
       d="m 132.75073,215.33461 -23.04454,-13.26678 76.83862,-44.27334 23.04456,13.26679 z" />
    <path
       id="path1187"
       style="display:inline;opacity:1;fill:#0f3365;fill-opacity:1;stroke:none;stroke-width:2.85818;stroke-linecap:square;stroke-linejoin:miter;stroke-miterlimit:2.1;stroke-dasharray:none;stroke-dashoffset:0;stroke-opacity:1;paint-order:fill markers stroke"
       d="m 132.75073,159.94478 -23.04454,-13.26678 76.83862,-44.27334 23.04456,13.26679 z" />
    <path
       id="rect1102"
       style="display:inline;opacity:1;fill:#0f3365;fill-opacity:1;stroke:none;stroke-width:3.9657;stroke-linecap:square;stroke-linejoin:miter;stroke-miterlimit:2.1;stroke-dasharray:none;stroke-dashoffset:0;stroke-opacity:1;paint-order:fill markers stroke"
       d="M 0.48879258,60.281555 V 91.643656 L 77.414343,136.05638 v 24.02801 L 0.48879258,115.67129 v 31.3621 L 77.414343,191.44612 v 24.02801 L 0.48879258,171.0614 v 31.36173 C 35.338822,222.54387 70.188857,242.66461 105.03893,262.78527 V 120.6437 C 70.188845,100.52306 35.338828,80.402289 0.48879258,60.281555 Z" />
    <path
       id="rect1122"
       style="display:inline;opacity:1;fill:#cccccc;fill-opacity:1;stroke:none;stroke-width:3.9657;stroke-linecap:square;stroke-linejoin:miter;stroke-miterlimit:2.1;stroke-dasharray:none;stroke-dashoffset:0;stroke-opacity:1;paint-order:fill markers stroke"
       d="M 209.58945,60.281555 C 174.73936,80.402401 139.88923,100.52319 105.03893,120.6437 v 142.14157 c 34.85034,-20.12043 69.70038,-40.24136 104.55052,-60.36214 V 171.0614 l -76.92555,44.41273 v -24.02801 l 76.92555,-44.41273 v -31.3621 l -76.92555,44.4131 v -24.02801 l 76.92555,-44.412724 z" />
    <path
       id="rect1134"
       style="display:inline;opacity:1;fill:#ffffff;fill-opacity:1;stroke:#cccccc;stroke-width:0.593122;stroke-linecap:square;stroke-linejoin:miter;stroke-miterlimit:2.1;stroke-dasharray:none;stroke-dashoffset:0;stroke-opacity:1;paint-order:fill markers stroke"
       d="M 105.02619,0.34223093 C 70.215524,20.399848 35.404716,40.457017 0.59420423,60.514783 L 105.03892,120.6437 C 139.84985,100.58656 174.66053,80.528991 209.47128,60.471533 L 186.42681,47.204673 109.58812,91.478 91.932315,81.313444 168.77098,37.040125 145.72649,23.773646 68.888204,68.046973 51.232394,57.882419 128.07106,13.60909 Z" />
  </g>
</svg>
