<?xml version="1.0" encoding="utf-8"?>
<svg xmlns="http://www.w3.org/2000/svg" xmlns:xlink="http://www.w3.org/1999/xlink" style="margin: auto; background: rgb(255, 255, 255); display: block; shape-rendering: auto;" width="200px" height="200px" viewBox="0 0 100 100" preserveAspectRatio="xMidYMid">
<g transform="rotate(0 50 50)">
  <rect x="47" y="24" rx="3" ry="4.92" width="6" height="12" fill="#000000">
    <animate attributeName="opacity" values="1;0" keyTimes="0;1" dur="2.564102564102564s" begin="-2.3504273504273505s" repeatCount="indefinite"></animate>
  </rect>
</g><g transform="rotate(30 50 50)">
  <rect x="47" y="24" rx="3" ry="4.92" width="6" height="12" fill="#000000">
    <animate attributeName="opacity" values="1;0" keyTimes="0;1" dur="2.564102564102564s" begin="-2.1367521367521367s" repeatCount="indefinite"></animate>
  </rect>
</g><g transform="rotate(60 50 50)">
  <rect x="47" y="24" rx="3" ry="4.92" width="6" height="12" fill="#000000">
    <animate attributeName="opacity" values="1;0" keyTimes="0;1" dur="2.564102564102564s" begin="-1.9230769230769231s" repeatCount="indefinite"></animate>
  </rect>
</g><g transform="rotate(90 50 50)">
  <rect x="47" y="24" rx="3" ry="4.92" width="6" height="12" fill="#000000">
    <animate attributeName="opacity" values="1;0" keyTimes="0;1" dur="2.564102564102564s" begin="-1.7094017094017095s" repeatCount="indefinite"></animate>
  </rect>
</g><g transform="rotate(120 50 50)">
  <rect x="47" y="24" rx="3" ry="4.92" width="6" height="12" fill="#000000">
    <animate attributeName="opacity" values="1;0" keyTimes="0;1" dur="2.564102564102564s" begin="-1.4957264957264957s" repeatCount="indefinite"></animate>
  </rect>
</g><g transform="rotate(150 50 50)">
  <rect x="47" y="24" rx="3" ry="4.92" width="6" height="12" fill="#000000">
    <animate attributeName="opacity" values="1;0" keyTimes="0;1" dur="2.564102564102564s" begin="-1.2820512820512822s" repeatCount="indefinite"></animate>
  </rect>
</g><g transform="rotate(180 50 50)">
  <rect x="47" y="24" rx="3" ry="4.92" width="6" height="12" fill="#000000">
    <animate attributeName="opacity" values="1;0" keyTimes="0;1" dur="2.564102564102564s" begin="-1.0683760683760684s" repeatCount="indefinite"></animate>
  </rect>
</g><g transform="rotate(210 50 50)">
  <rect x="47" y="24" rx="3" ry="4.92" width="6" height="12" fill="#000000">
    <animate attributeName="opacity" values="1;0" keyTimes="0;1" dur="2.564102564102564s" begin="-0.8547008547008548s" repeatCount="indefinite"></animate>
  </rect>
</g><g transform="rotate(240 50 50)">
  <rect x="47" y="24" rx="3" ry="4.92" width="6" height="12" fill="#000000">
    <animate attributeName="opacity" values="1;0" keyTimes="0;1" dur="2.564102564102564s" begin="-0.6410256410256411s" repeatCount="indefinite"></animate>
  </rect>
</g><g transform="rotate(270 50 50)">
  <rect x="47" y="24" rx="3" ry="4.92" width="6" height="12" fill="#000000">
    <animate attributeName="opacity" values="1;0" keyTimes="0;1" dur="2.564102564102564s" begin="-0.4273504273504274s" repeatCount="indefinite"></animate>
  </rect>
</g><g transform="rotate(300 50 50)">
  <rect x="47" y="24" rx="3" ry="4.92" width="6" height="12" fill="#000000">
    <animate attributeName="opacity" values="1;0" keyTimes="0;1" dur="2.564102564102564s" begin="-0.2136752136752137s" repeatCount="indefinite"></animate>
  </rect>
</g><g transform="rotate(330 50 50)">
  <rect x="47" y="24" rx="3" ry="4.92" width="6" height="12" fill="#000000">
    <animate attributeName="opacity" values="1;0" keyTimes="0;1" dur="2.564102564102564s" begin="0s" repeatCount="indefinite"></animate>
  </rect>
</g>
<!-- [ldio] generated by https://loading.io/ --></svg>